<svg xmlns="http://www.w3.org/2000/svg" width="128" height="128" viewBox="0 0 128 128" fill="none"><path d="M18 64c0-28.719 23.281-52 52-52s52 23.281 52 52-23.281 52-52 52c-15.464 0-29.36-6.824-38.773-17.62-1.783-2.03-1.605-5.142.413-6.946 2.018-1.804 5.144-1.613 6.927.417C45.07 101.41 55.79 106 70 106c23.196 0 42-18.804 42-42S93.196 22 70 22 28 40.804 28 64c0 6.627 5.373 12 12 12 6.627 0 12-5.373 12-12 0-5.457-3.623-10.064-8.556-11.5-2.625-.772-4.134-3.517-3.362-6.142.772-2.625 3.517-4.134 6.142-3.362C55.85 44.7 64 53.02 64 64c0 12.15-9.85 22-22 22S20 76.15 18 64Z" fill="#F58634"/></svg>
