<svg xmlns="http://www.w3.org/2000/svg" viewBox="0 0 100 100">
  <defs>
    <radialGradient id="catFur">
      <stop offset="0%" stop-color="#FFD4A3"/>
      <stop offset="100%" stop-color="#FFAB66"/>
    </radialGradient>
  </defs>
  <circle cx="50" cy="50" r="48" fill="#FFF8F0"/>
  <ellipse cx="50" cy="55" rx="28" ry="30" fill="url(#catFur)"/>
  <!-- Ears -->
  <path d="M25 25 L35 48 L15 40 Z" fill="url(#catFur)"/>
  <path d="M75 25 L65 48 L85 40 Z" fill="url(#catFur)"/>
  <path d="M25 32 L30 40 L20 37 Z" fill="#FFB380"/>
  <path d="M75 32 L70 40 L80 37 Z" fill="#FFB380"/>
  <!-- Eyes -->
  <ellipse cx="38" cy="50" rx="4" ry="6" fill="#333"/>
  <ellipse cx="62" cy="50" rx="4" ry="6" fill="#333"/>
  <circle cx="40" cy="48" r="1.5" fill="#FFF"/>
  <circle cx="64" cy="48" r="1.5" fill="#FFF"/>
  <!-- Nose -->
  <path d="M50 58 L47 61 L50 63 L53 61 Z" fill="#FF6B6B"/>
  <!-- Mouth -->
  <path d="M50 63 Q42 65, 38 60" stroke="#333" stroke-width="2" fill="none" stroke-linecap="round"/>
  <path d="M50 63 Q58 65, 62 60" stroke="#333" stroke-width="2" fill="none" stroke-linecap="round"/>
  <!-- Whiskers -->
  <line x1="20" y1="52" x2="5" y2="50" stroke="#666" stroke-width="1.5"/>
  <line x1="20" y1="58" x2="5" y2="60" stroke="#666" stroke-width="1.5"/>
  <line x1="80" y1="52" x2="95" y2="50" stroke="#666" stroke-width="1.5"/>
  <line x1="80" y1="58" x2="95" y2="60" stroke="#666" stroke-width="1.5"/>
</svg>
